HIERARCHY
ROOT Root
{
  OFFSET 0.0 0.0 0.0
  CHANNELS 6 Xposition Yposition Zposition Zrotation Yrotation Xrotation
  JOINT Hips
  {
    OFFSET 0.0 100.0 0.0
    CHANNELS 6 Xposition Yposition Zposition Zrotation Yrotation Xrotation
    JOINT Spine1
    {
      OFFSET -0.013727 5.003763 -0.053727
      CHANNELS 3 Zrotation Yrotation Xrotation
      JOINT Spine2
      {
        OFFSET -0.0 7.125301 -0.029825
        CHANNELS 3 Zrotation Yrotation Xrotation
        JOINT Chest
        {
          OFFSET -1e-06 7.550063 -0.815971
          CHANNELS 3 Zrotation Yrotation Xrotation
          JOINT Neck1
          {
            OFFSET -0.181677 26.311295 -0.553348
            CHANNELS 3 Zrotation Yrotation Xrotation
            JOINT Neck2
            {
              OFFSET -3e-06 7.709397 2.302585
              CHANNELS 3 Zrotation Yrotation Xrotation
              JOINT Head
              {
                OFFSET -5e-06 6.128916 1.953709
                CHANNELS 3 Zrotation Yrotation Xrotation
                JOINT HeadEnd
                {
                  OFFSET 0.003598 16.065403 -1.835379
                  CHANNELS 3 Zrotation Yrotation Xrotation
                }
                JOINT Jaw
                {
                  OFFSET 0.002637 0.475592 3.094941
                  CHANNELS 3 Zrotation Yrotation Xrotation
                }
                JOINT LeftEye
                {
                  OFFSET 3.206381 5.380205 7.586883
                  CHANNELS 3 Zrotation Yrotation Xrotation
                }
                JOINT RightEye
                {
                  OFFSET -3.22244 5.361869 7.558234
                  CHANNELS 3 Zrotation Yrotation Xrotation
                }
              }
            }
          }
          JOINT LeftShoulder
          {
            OFFSET 1.621652 23.237164 5.113413
            CHANNELS 3 Zrotation Yrotation Xrotation
            JOINT LeftArm
            {
              OFFSET 14.919846 2e-06 -5.502326
              CHANNELS 3 Zrotation Yrotation Xrotation
              JOINT LeftForeArm
              {
                OFFSET 28.739307 0.0 -0.002588
                CHANNELS 3 Zrotation Yrotation Xrotation
                JOINT LeftHand
                {
                  OFFSET 27.093981 -1e-06 0.002609
                  CHANNELS 3 Zrotation Yrotation Xrotation
                  JOINT LeftHandThumb1
                  {
                    OFFSET 2.276482 -1.392045 3.191413
                    CHANNELS 3 Zrotation Yrotation Xrotation
                    JOINT LeftHandThumb2
                    {
                      OFFSET 4.012836 -1.828127 1.641654
                      CHANNELS 3 Zrotation Yrotation Xrotation
                      JOINT LeftHandThumb3
                      {
                        OFFSET 2.798515 0.0 -3e-06
                        CHANNELS 3 Zrotation Yrotation Xrotation
                        JOINT LeftHandThumbEnd
                        {
                          OFFSET 3.180793 -4e-06 4e-06
                          CHANNELS 3 Zrotation Yrotation Xrotation
                        }
                      }
                    }
                  }
                  JOINT LeftHandIndex1
                  {
                    OFFSET 3.247555 -0.531998 2.296169
                    CHANNELS 3 Zrotation Yrotation Xrotation
                    JOINT LeftHandIndex2
                    {
                      OFFSET 6.364578 0.01206 0.1786
                      CHANNELS 3 Zrotation Yrotation Xrotation
                      JOINT LeftHandIndex3
                      {
                        OFFSET 3.662364 0.0 0.0
                        CHANNELS 3 Zrotation Yrotation Xrotation
                        JOINT LeftHandIndex4
                        {
                          OFFSET 2.329242 4e-06 4e-06
                          CHANNELS 3 Zrotation Yrotation Xrotation
                          JOINT LeftHandIndexEnd
                          {
                            OFFSET 2.759615 -0.180537 -0.113024
                            CHANNELS 3 Zrotation Yrotation Xrotation
                          }
                        }
                      }
                    }
                  }
                  JOINT LeftHandMiddle1
                  {
                    OFFSET 3.163495 0.240981 1.000332
                    CHANNELS 3 Zrotation Yrotation Xrotation
                    JOINT LeftHandMiddle2
                    {
                      OFFSET 6.19078 -0.259278 -1.002548
                      CHANNELS 3 Zrotation Yrotation Xrotation
                      JOINT LeftHandMiddle3
                      {
                        OFFSET 4.35652 -4e-06 -1e-06
                        CHANNELS 3 Zrotation Yrotation Xrotation
                        JOINT LeftHandMiddle4
                        {
                          OFFSET 2.996877 -8e-06 0.0
                          CHANNELS 3 Zrotation Yrotation Xrotation
                          JOINT LeftHandMiddleEnd
                          {
                            OFFSET 2.304287 -0.294569 -0.031741
                            CHANNELS 3 Zrotation Yrotation Xrotation
                          }
                        }
                      }
                    }
                  }
                  JOINT LeftHandRing1
                  {
                    OFFSET 2.882643 -0.053652 -0.322543
                    CHANNELS 3 Zrotation Yrotation Xrotation
                    JOINT LeftHandRing2
                    {
                      OFFSET 5.854541 -0.486202 -1.373841
                      CHANNELS 3 Zrotation Yrotation Xrotation
                      JOINT LeftHandRing3
                      {
                        OFFSET 4.350578 0.0 3e-06
                        CHANNELS 3 Zrotation Yrotation Xrotation
                        JOINT LeftHandRing4
                        {
                          OFFSET 2.651321 7e-06 2e-06
                          CHANNELS 3 Zrotation Yrotation Xrotation
                          JOINT LeftHandRingEnd
                          {
                            OFFSET 1.936105 0.077687 -7.1e-05
                            CHANNELS 3 Zrotation Yrotation Xrotation
                          }
                        }
                      }
                    }
                  }
                  JOINT LeftHandPinky1
                  {
                    OFFSET 2.8655 -0.310005 -1.600378
                    CHANNELS 3 Zrotation Yrotation Xrotation
                    JOINT LeftHandPinky2
                    {
                      OFFSET 5.087849 -1.331141 -1.77123
                      CHANNELS 3 Zrotation Yrotation Xrotation
                      JOINT LeftHandPinky3
                      {
                        OFFSET 3.070974 4e-06 0.0
                        CHANNELS 3 Zrotation Yrotation Xrotation
                        JOINT LeftHandPinky4
                        {
                          OFFSET 1.549672 0.0 1e-06
                          CHANNELS 3 Zrotation Yrotation Xrotation
                          JOINT LeftHandPinkyEnd
                          {
                            OFFSET 1.944893 -0.157802 0.057219
                            CHANNELS 3 Zrotation Yrotation Xrotation
                          }
                        }
                      }
                    }
                  }
                }
              }
            }
          }
          JOINT RightShoulder
          {
            OFFSET -1.380118 23.180309 5.214158
            CHANNELS 3 Zrotation Yrotation Xrotation
            JOINT RightArm
            {
              OFFSET -15.037196 1.2e-05 -5.545604
              CHANNELS 3 Zrotation Yrotation Xrotation
              JOINT RightForeArm
              {
                OFFSET -28.736639 2e-06 -0.002597
                CHANNELS 3 Zrotation Yrotation Xrotation
                JOINT RightHand
                {
                  OFFSET -27.133619 -0.0 0.002613
                  CHANNELS 3 Zrotation Yrotation Xrotation
                  JOINT RightHandThumb1
                  {
                    OFFSET -2.274032 -1.383988 3.163127
                    CHANNELS 3 Zrotation Yrotation Xrotation
                    JOINT RightHandThumb2
                    {
                      OFFSET -4.011429 -1.827466 1.640914
                      CHANNELS 3 Zrotation Yrotation Xrotation
                      JOINT RightHandThumb3
                      {
                        OFFSET -2.794935 -4e-06 -3e-06
                        CHANNELS 3 Zrotation Yrotation Xrotation
                        JOINT RightHandThumbEnd
                        {
                          OFFSET -3.183852 4e-06 1e-06
                          CHANNELS 3 Zrotation Yrotation Xrotation
                        }
                      }
                    }
                  }
                  JOINT RightHandIndex1
                  {
                    OFFSET -3.253266 -0.520057 2.282866
                    CHANNELS 3 Zrotation Yrotation Xrotation
                    JOINT RightHandIndex2
                    {
                      OFFSET -6.341917 0.012471 0.178266
                      CHANNELS 3 Zrotation Yrotation Xrotation
                      JOINT RightHandIndex3
                      {
                        OFFSET -3.654871 -8e-06 -0.0
                        CHANNELS 3 Zrotation Yrotation Xrotation
                        JOINT RightHandIndex4
                        {
                          OFFSET -2.327586 0.0 1e-06
                          CHANNELS 3 Zrotation Yrotation Xrotation
                          JOINT RightHandIndexEnd
                          {
                            OFFSET -2.76179 -0.180656 -0.113078
                            CHANNELS 3 Zrotation Yrotation Xrotation
                          }
                        }
                      }
                    }
                  }
                  JOINT RightHandMiddle1
                  {
                    OFFSET -3.168106 0.246593 1.00103
                    CHANNELS 3 Zrotation Yrotation Xrotation
                    JOINT RightHandMiddle2
                    {
                      OFFSET -6.180828 -0.258836 -1.000895
                      CHANNELS 3 Zrotation Yrotation Xrotation
                      JOINT RightHandMiddle3
                      {
                        OFFSET -4.348901 0.0 -0.0
                        CHANNELS 3 Zrotation Yrotation Xrotation
                        JOINT RightHandMiddle4
                        {
                          OFFSET -3.00024 -4e-06 -2e-06
                          CHANNELS 3 Zrotation Yrotation Xrotation
                          JOINT RightHandMiddleEnd
                          {
                            OFFSET -2.30252 -0.29437 -0.031706
                            CHANNELS 3 Zrotation Yrotation Xrotation
                          }
                        }
                      }
                    }
                  }
                  JOINT RightHandRing1
                  {
                    OFFSET -2.88569 -0.067952 -0.308858
                    CHANNELS 3 Zrotation Yrotation Xrotation
                    JOINT RightHandRing2
                    {
                      OFFSET -5.854198 -0.48613 -1.373731
                      CHANNELS 3 Zrotation Yrotation Xrotation
                      JOINT RightHandRing3
                      {
                        OFFSET -4.33881 -4e-06 -0.0
                        CHANNELS 3 Zrotation Yrotation Xrotation
                        JOINT RightHandRing4
                        {
                          OFFSET -2.654903 -4e-06 4e-06
                          CHANNELS 3 Zrotation Yrotation Xrotation
                          JOINT RightHandRingEnd
                          {
                            OFFSET -1.933568 0.077527 -5.2e-05
                            CHANNELS 3 Zrotation Yrotation Xrotation
                          }
                        }
                      }
                    }
                  }
                  JOINT RightHandPinky1
                  {
                    OFFSET -2.866425 -0.342796 -1.584145
                    CHANNELS 3 Zrotation Yrotation Xrotation
                    JOINT RightHandPinky2
                    {
                      OFFSET -5.091371 -1.332055 -1.772385
                      CHANNELS 3 Zrotation Yrotation Xrotation
                      JOINT RightHandPinky3
                      {
                        OFFSET -3.062664 -4e-06 1e-06
                        CHANNELS 3 Zrotation Yrotation Xrotation
                        JOINT RightHandPinky4
                        {
                          OFFSET -1.546529 4e-06 -2e-06
                          CHANNELS 3 Zrotation Yrotation Xrotation
                          JOINT RightHandPinkyEnd
                          {
                            OFFSET -1.945119 -0.157718 0.057211
                            CHANNELS 3 Zrotation Yrotation Xrotation
                          }
                        }
                      }
                    }
                  }
                }
              }
            }
          }
        }
      }
    }
    JOINT LeftLeg
    {
      OFFSET 10.043214 -8.434526 2.595655
      CHANNELS 3 Zrotation Yrotation Xrotation
      JOINT LeftShin
      {
        OFFSET -1e-06 -43.221752 -0.802913
        CHANNELS 3 Zrotation Yrotation Xrotation
        JOINT LeftFoot
        {
          OFFSET 1e-06 -42.155094 -3.481523
          CHANNELS 3 Zrotation Yrotation Xrotation
          JOINT LeftToeBase
          {
            OFFSET 0.0 -5.059472 13.231529
            CHANNELS 3 Zrotation Yrotation Xrotation
            JOINT LeftToeEnd
            {
              OFFSET -0.009607 -1.647619 6.513017
              CHANNELS 3 Zrotation Yrotation Xrotation
            }
          }
        }
      }
    }
    JOINT RightLeg
    {
      OFFSET -10.047278 -8.29526 2.620317
      CHANNELS 3 Zrotation Yrotation Xrotation
      JOINT RightShin
      {
        OFFSET 1e-06 -43.362206 -0.805556
        CHANNELS 3 Zrotation Yrotation Xrotation
        JOINT RightFoot
        {
          OFFSET 2e-06 -42.117393 -3.478398
          CHANNELS 3 Zrotation Yrotation Xrotation
          JOINT RightToeBase
          {
            OFFSET -0.0 -5.079609 13.284196
            CHANNELS 3 Zrotation Yrotation Xrotation
            JOINT RightToeEnd
            {
              OFFSET 0.009532 -1.634378 6.460591
              CHANNELS 3 Zrotation Yrotation Xrotation
            }
          }
        }
      }
    }
  }
}
MOTION
Frames: 4
Frame Time: 0.03333333333333333
0.0 0.0 0.0 0.0 -0.0 0.0 -8.189603 99.422089 2.791853 5.773678 45.757835 -4.518897 4.004647 -0.226933 0.048877 0.588371 2.026188 -4.690994 -2.255144 -0.722597 10.287773 -2.958678 3.446587 -9.588688 -0.751301 -0.330948 -3.401215 -2.11694 1.850583 -32.858204 7.6e-05 -2.2e-05 8e-06 -0.149113 -0.147161 0.162401 0.283721 -3.721519 -10.00748 -0.572959 3.464476 -10.022902 -23.031292 -2.651451 12.619529 -56.74152 -1.536167 -2.592032 0.23812 -26.030228 -0.069963 9.913149 -0.906801 -4.69561 -5.882113 9.861297 0.70259 -10.936885 -0.360574 7.156209 1e-06 8.774836 2e-06 -15.801952 18.368694 6.104607 -1.844034 2.498507 -2.507278 -10.163613 4.678952 4.621111 -20.976053 -3e-06 1e-06 -21.226318 2.451699 -3.594005 1e-06 -5e-06 1e-06 -1.362682 2.240799 -0.746326 -21.33494 0.584909 3.008323 -13.821233 -3e-06 0.0 -23.887203 -0.249083 -0.839487 -60.652729 2.600448 -1.343659 -0.294024 1.679688 0.833258 -14.218226 0.093215 1.30058 -34.212093 -0.287567 0.967165 -20.033241 0.964534 1.212841 -0.0 1e-06 1e-06 -3.440391 0.788234 0.501655 -15.928205 -3.167314 2.999706 -6.338833 -2e-06 -0.0 -18.12347 3.648185 -4.905675 -4e-06 0.0 -2e-06 12.903131 10.314496 11.808678 63.735882 -4.483891 -1.26968 0.09057 32.333035 -0.006087 -12.351136 -4.881553 7.266721 2.243544 -5.255041 -3.18016 14.282904 -0.826597 6.952508 -1e-06 -12.690614 2e-06 16.526407 -17.602591 2.38431 1.665669 -1.955923 -2.878301 4.727803 -4.170592 4.993926 11.020536 2e-06 -2e-06 12.109062 -3.735719 -2.866787 0.0 0.0 1e-06 1.291987 -1.92855 -1.498089 14.800142 0.567467 3.865609 14.242585 -1.341737 -6.660663 19.631985 0.143925 -0.648246 49.988243 -0.519303 -6.286952 0.353029 -1.511152 -0.031939 20.222811 3.68431 2.31663 18.787292 4e-06 -2e-06 10.751639 -0.479868 1.397906 -0.0 -1e-06 -0.0 3.27381 0.305947 -0.580111 21.486832 11.830384 2.266133 8.162937 2e-06 -1e-06 18.399099 -3.798988 -4.94058 3e-06 0.0 -1e-06 2.333722 -12.935366 1.345358 -0.037486 -0.337507 1.440893 -12.344971 -13.849086 6.398822 1.681378 -2.153067 -1.282852 0.0 -0.0 2e-06 -9.029151 -21.495327 17.388031 -0.076334 -0.067088 2.749846 6.465647 -28.821091 -11.545742 -1.468293 1.037299 -0.190185 0.0 0.0 -1e-06 
0.0 0.0 0.0 0.0 -0.0 0.0 -8.116779 99.413857 2.796105 6.027178 46.498787 -4.278234 3.956931 -0.223349 0.023332 0.596466 2.065248 -4.701882 -2.112774 -0.632005 10.25236 -2.665277 3.396009 -9.131159 -0.703529 -0.207817 -3.419231 -2.007015 2.110683 -31.998993 7.7e-05 -2.2e-05 6e-06 -0.141923 -0.144394 0.165448 0.28605 -3.73191 -10.002576 -0.560613 3.480512 -10.009988 -23.107084 -2.537212 12.714808 -56.816933 -1.682077 -2.62888 0.290884 -26.21394 -0.066868 9.693903 -0.965454 -4.407792 -5.882107 9.861288 0.702592 -10.936875 -0.360574 7.156211 -0.0 8.774829 -1e-06 -15.815352 18.367369 6.10728 -1.844032 2.498506 -2.507277 -10.163604 4.678947 4.621112 -20.97603 -1e-06 4e-06 -21.226292 2.4517 -3.594001 1e-06 -5e-06 1e-06 -1.362681 2.240798 -0.746323 -21.334919 0.584911 3.008329 -13.821215 -2e-06 5e-06 -23.887175 -0.249074 -0.839481 -60.649944 2.584888 -1.340876 -0.294025 1.679689 0.833257 -14.218215 0.093216 1.300584 -34.212055 -0.28756 0.967176 -20.033222 0.964541 1.212844 -0.0 1e-06 1e-06 -3.440388 0.788234 0.501656 -15.928192 -3.16731 2.999713 -6.338828 -2e-06 1e-06 -18.123453 3.648185 -4.90567 -4e-06 -1e-06 -1e-06 12.976245 10.307886 11.832943 63.842113 -4.671633 -1.12108 0.064963 32.187729 -0.011268 -12.333958 -5.025964 7.77811 2.243542 -5.255039 -3.180159 14.282895 -0.826595 6.952504 -1e-06 -12.69061 1e-06 16.565119 -17.584982 2.352537 1.665667 -1.955922 -2.878301 4.7278 -4.17059 4.993926 11.020529 2e-06 -1e-06 12.109055 -3.735717 -2.866787 -0.0 0.0 0.0 1.291986 -1.92855 -1.498089 14.800131 0.567468 3.86561 14.242576 -1.341737 -6.660662 19.631971 0.143927 -0.648246 49.992313 -0.544575 -6.269552 0.353029 -1.511152 -0.03194 20.222797 3.684311 2.316631 18.787277 5e-06 -1e-06 10.751631 -0.47987 1.397906 -0.0 0.0 -0.0 3.273808 0.305947 -0.580111 21.486818 11.83038 2.266134 8.16293 2e-06 0.0 18.399084 -3.798989 -4.940577 3e-06 0.0 -1e-06 2.097011 -13.318567 1.188602 -0.040005 -0.356157 1.442711 -12.442422 -14.091386 6.634831 1.680828 -2.13878 -1.286782 0.0 -0.0 2e-06 -9.26151 -21.864225 17.536764 -0.072482 -0.056585 2.732589 6.576205 -29.176044 -11.616891 -1.468085 1.03432 -0.140869 0.0 -0.0 -1e-06 
0.0 0.0 0.0 0.0 -0.0 0.0 -8.021712 99.416801 2.797326 6.304392 47.260799 -4.011107 3.901772 -0.219329 -0.016879 0.602117 2.103682 -4.719592 -1.972693 -0.537585 10.222353 -2.27394 3.339807 -8.651044 -0.649507 -0.059072 -3.437043 -1.822727 2.366485 -31.002731 7.7e-05 -2.4e-05 5e-06 -0.13408 -0.140819 0.169237 0.289274 -3.738649 -9.989448 -0.547615 3.494382 -9.984286 -23.192659 -2.417787 12.800592 -56.869499 -1.823312 -2.622875 0.333059 -26.40863 -0.064166 9.508567 -0.97237 -4.169718 -5.882111 9.861292 0.702588 -10.93688 -0.360575 7.15621 0.0 8.774831 -1e-06 -15.810698 18.349705 6.114101 -1.844033 2.498505 -2.50728 -10.163609 4.678946 4.621109 -20.97604 -5e-06 1e-06 -21.226301 2.451696 -3.594001 2e-06 -5e-06 -1e-06 -1.362682 2.240799 -0.746325 -21.33493 0.584909 3.008324 -13.821224 -3e-06 1e-06 -23.887192 -0.249081 -0.839484 -60.61599 2.552048 -1.327396 -0.294024 1.679688 0.833256 -14.218219 0.093214 1.300582 -34.212074 -0.287566 0.967171 -20.03323 0.964536 1.212843 -0.0 1e-06 -1e-06 -3.440392 0.788234 0.501655 -15.928196 -3.167312 2.999707 -6.338829 -1e-06 0.0 -18.123459 3.648184 -4.905674 -4e-06 0.0 -2e-06 13.09028 10.303438 11.876975 63.907463 -4.812834 -0.875369 0.020304 32.025749 -0.031587 -12.236903 -5.111457 8.160471 2.243543 -5.255038 -3.180158 14.282896 -0.826596 6.952503 -2e-06 -12.690607 3e-06 16.583569 -17.549994 2.319355 1.665667 -1.955922 -2.878299 4.7278 -4.170589 4.993923 11.02053 2e-06 -2e-06 12.109057 -3.735717 -2.866783 -0.0 -0.0 -2e-06 1.291987 -1.92855 -1.49809 14.800132 0.567467 3.865606 14.242577 -1.341737 -6.660658 19.631971 0.143926 -0.648246 49.955566 -0.57897 -6.274496 0.353029 -1.511152 -0.03194 20.222799 3.684309 2.316629 18.787281 4e-06 -2e-06 10.751633 -0.479868 1.397906 0.0 -0.0 0.0 3.273807 0.305947 -0.580111 21.48682 11.830378 2.266131 8.16293 1e-06 -2e-06 18.399088 -3.798985 -4.940577 2e-06 0.0 -1e-06 1.844513 -13.711154 1.03688 -0.042432 -0.381409 1.437841 -12.571428 -14.353877 6.867582 1.680175 -2.120358 -1.319136 0.0 -0.0 2e-06 -9.518936 -22.248375 17.687567 -0.068602 -0.048844 2.722096 6.745451 -29.559229 -11.714262 -1.467701 1.030345 -0.105679 0.0 -0.0 -1e-06 
0.0 0.0 0.0 0.0 -0.0 0.0 -7.912304 99.420891 2.791137 6.571301 48.021477 -3.769334 3.853013 -0.206474 -0.061165 0.606744 2.141219 -4.739357 -1.840993 -0.458513 10.210961 -1.781522 3.25251 -8.137976 -0.592185 0.115121 -3.452259 -1.599283 2.642584 -29.94401 7.7e-05 -2.4e-05 6e-06 -0.126196 -0.136027 0.171484 0.295833 -3.742869 -9.977899 -0.538171 3.507615 -9.959064 -23.251245 -2.304285 12.885237 -56.935207 -1.963298 -2.66001 0.339495 -26.590179 -0.050841 9.360438 -0.970857 -3.884359 -5.882108 9.861286 0.702591 -10.936875 -0.360575 7.156208 0.0 8.774827 -2e-06 -15.811296 18.340992 6.11768 -1.844033 2.498506 -2.50728 -10.163603 4.678945 4.621109 -20.97603 -5e-06 1e-06 -21.226292 2.451694 -3.594 1e-06 -4e-06 -0.0 -1.362682 2.240798 -0.746323 -21.334921 0.58491 3.008324 -13.821218 -3e-06 1e-06 -23.887175 -0.24908 -0.839482 -60.591496 2.528349 -1.333961 -0.294025 1.679688 0.833255 -14.218215 0.093216 1.300579 -34.212067 -0.287566 0.967172 -20.033226 0.964536 1.212844 -1e-06 -0.0 -0.0 -3.440389 0.788233 0.501655 -15.928192 -3.16731 2.999709 -6.338829 -2e-06 1e-06 -18.123455 3.648183 -4.905674 -5e-06 0.0 -1e-06 13.193272 10.31627 11.915523 63.964195 -4.923877 -0.513103 -0.03427 31.883614 -0.046994 -12.05119 -5.112167 8.411983 2.243543 -5.255038 -3.180158 14.282902 -0.826595 6.952506 -3e-06 -12.690607 2e-06 16.581739 -17.512459 2.291596 1.665667 -1.955922 -2.878302 4.727802 -4.170588 4.993927 11.020536 4e-06 0.0 12.109063 -3.735717 -2.866786 -1e-06 0.0 1e-06 1.291985 -1.92855 -1.498089 14.800142 0.567469 3.865609 14.242585 -1.341736 -6.660661 19.631987 0.143926 -0.648245 49.900059 -0.609115 -6.310278 0.35303 -1.511151 -0.031941 20.222811 3.684312 2.31663 18.787292 7e-06 -1e-06 10.75164 -0.479869 1.397906 0.0 -0.0 0.0 3.27381 0.305947 -0.580111 21.486834 11.830381 2.266134 8.162934 3e-06 -1e-06 18.399099 -3.798983 -4.940578 3e-06 0.0 0.0 1.593259 -14.095863 0.918129 -0.046833 -0.407682 1.434985 -12.713403 -14.63847 7.046373 1.678348 -2.103151 -1.344921 0.0 -0.0 2e-06 -9.782638 -22.618464 17.862839 -0.066463 -0.049287 2.725642 6.965504 -29.945511 -11.836045 -1.468275 1.018532 -0.085018 -0.0 -0.0 -1e-06 
